<svg xmlns="http://www.w3.org/2000/svg" xml:space="preserve" viewBox="0 0 64 64"><g data-name="20-Alarm Clock"><circle cx="32" cy="35" r="20" fill="#f2f6fc" data-original="#f2f6fc"/><circle cx="32" cy="35" r="13" fill="#e9edf5" data-original="#e9edf5"/><path fill="#d99668" d="m51 53 5 10h-4l-6.65-5.7a25.1 25.1 0 0 0 5.52-4.43zm-37.87-.13a25.1 25.1 0 0 0 5.52 4.43L12 63H8l5-10z" data-original="#d99668"/><path fill="#cdd2e1" d="m3 4 2 2a10 10 0 0 0-2 2L1 6zm60 2-2 2a10 10 0 0 0-2-2l2-2zM37 1a2.006 2.006 0 0 1 2 2 1.96 1.96 0 0 1-.59 1.41A1.96 1.96 0 0 1 37 5H27a2.006 2.006 0 0 1-2-2 1.96 1.96 0 0 1 .59-1.41A1.96 1.96 0 0 1 27 1z" data-original="#cdd2e1"/><path fill="#7e8596" d="M34 5v4.08c-.66-.05-1.33-.08-2-.08s-1.34.03-2 .08V5zm-21 7 2.73 2.73a25.2 25.2 0 0 0-4 4L9 16zm42 4-2.73 2.73a25.2 25.2 0 0 0-4-4L51 12z" data-original="#7e8596"/><path fill="#ffc247" d="M18.07 6.93 13 12l-4 4-5.07 5.07A10 10 0 1 1 18.07 6.93" data-original="#ffc247"/><path fill="#f5cd62" d="M3 16a10 10 0 0 1 14.782-8.782l.288-.288A10 10 0 1 0 3.93 21.07l.288-.288A9.95 9.95 0 0 1 3 16" data-original="#f5cd62"/><path fill="#ffc247" d="M63 14a9.97 9.97 0 0 1-2.93 7.07L55 16l-4-4-5.07-5.07A10 10 0 0 1 63 14" data-original="#ffc247"/><path fill="#f5cd62" d="M61 8a10 10 0 0 0-15.07-1.07l.288.288a10 10 0 0 1 13.564 13.564l.288.288A10 10 0 0 0 61 8" data-original="#f5cd62"/><path fill="#65b1fc" d="M30 9.08c.66-.05 1.33-.08 2-.08s1.34.03 2 .08a25.77 25.77 0 0 1 14.27 5.65 25.2 25.2 0 0 1 4 4 25.96 25.96 0 0 1-1.4 34.14 25.1 25.1 0 0 1-5.52 4.43 25.93 25.93 0 0 1-26.7 0 25.1 25.1 0 0 1-5.52-4.43 25.96 25.96 0 0 1-1.4-34.14 25.2 25.2 0 0 1 4-4A25.77 25.77 0 0 1 30 9.08M52 35a20 20 0 1 0-20 20 19.994 19.994 0 0 0 20-20" data-original="#65b1fc"/><path fill="#afb4c8" d="M31 15h2v4h-2zm0 36h2v4h-2zm17-17h4v2h-4zm-36 0h4v2h-4zm30.6-11.018 2.828-2.828 1.414 1.414-2.829 2.828zm-25.456 25.45 2.829-2.828 1.414 1.414-2.829 2.828zm25.453-1.417 1.414-1.414 2.83 2.829-1.415 1.414zm-25.45-25.453 1.414-1.414 2.828 2.829-1.414 1.414z" data-original="#afb4c8"/><path fill="#cdd2e1" d="M34 32.77A2.94 2.94 0 0 1 35 35a3 3 0 0 1-6 0 3 3 0 0 1 5-2.23" data-original="#cdd2e1"/><path fill="#d99668" d="M34 24v8.77a2.98 2.98 0 0 0-4 0V24a2.006 2.006 0 0 1 2-2 2.015 2.015 0 0 1 2 2m1 11 5.5 5.5a2.121 2.121 0 0 1-3 3L32 38a3 3 0 0 0 3-3" data-original="#d99668"/><path fill="#4a98f7" d="M32 11a24 24 0 1 0 24 24 24 24 0 0 0-24-24m0 44a20 20 0 1 1 20-20 20 20 0 0 1-20 20" data-original="#4a98f7"/><path d="M32 14a21 21 0 1 0 21 21 21.024 21.024 0 0 0-21-21m18.949 22A18.9 18.9 0 0 1 46.1 47.688l-2.081-2.082-1.415 1.415 2.084 2.079A18.9 18.9 0 0 1 33 53.949V51h-2v2.949A18.9 18.9 0 0 1 19.312 49.1l2.082-2.081-1.415-1.415-2.079 2.084A18.9 18.9 0 0 1 13.051 36H16v-2h-2.949A18.9 18.9 0 0 1 17.9 22.312l2.081 2.082 1.415-1.415-2.084-2.079A18.9 18.9 0 0 1 31 16.051V19h2v-2.949A18.9 18.9 0 0 1 44.688 20.9l-2.082 2.081 1.415 1.415 2.079-2.084A18.9 18.9 0 0 1 50.949 34H48v2z" data-original="#000000"/><path d="M35.953 34.539A3.96 3.96 0 0 0 35 32.382V24a3 3 0 0 0-6 0v8.382a3.962 3.962 0 0 0 2.539 6.571l5.254 5.254a3.121 3.121 0 1 0 4.414-4.414zM32 23a1 1 0 0 1 1 1v7.142a3.6 3.6 0 0 0-2 0V24a1 1 0 0 1 1-1m-2 12a2 2 0 1 1 2 2 2 2 0 0 1-2-2m9.793 7.793a1.123 1.123 0 0 1-1.586 0l-4.3-4.3a4 4 0 0 0 1.586-1.586l4.3 4.3a1.12 1.12 0 0 1 0 1.586" data-original="#000000"/><path d="M63.707 6.707a1 1 0 0 0 0-1.414l-2-2a1 1 0 0 0-1.414 0l-1.421 1.421a10.965 10.965 0 0 0-13.65 1.508 1 1 0 0 0 0 1.414L49.586 12l-1.4 1.4A26.86 26.86 0 0 0 35 8.171V6h2a3 3 0 0 0 0-6H27a3 3 0 0 0 0 6h2v2.171A26.86 26.86 0 0 0 15.816 13.4l-1.4-1.4 4.364-4.364a1 1 0 0 0 0-1.414A10.965 10.965 0 0 0 5.128 4.714L3.707 3.293a1 1 0 0 0-1.414 0l-2 2a1 1 0 0 0 0 1.414l1.421 1.421a10.965 10.965 0 0 0 1.508 13.65 1 1 0 0 0 1.414 0L9 17.414l1.4 1.4a26.94 26.94 0 0 0 1.485 34.173l-4.78 9.566A1 1 0 0 0 8 64h4a1 1 0 0 0 .651-.241l6.113-5.24a26.9 26.9 0 0 0 26.472 0l6.113 5.24A1 1 0 0 0 52 64h4a1 1 0 0 0 .9-1.447l-4.782-9.564A26.94 26.94 0 0 0 53.6 18.816l1.4-1.4 4.364 4.364a1 1 0 0 0 1.414 0 10.965 10.965 0 0 0 1.508-13.65zM61 5.414l.586.586-.532.532q-.284-.3-.586-.586zM26 3a1 1 0 0 1 1-1h10a1 1 0 0 1 0 2H27a1 1 0 0 1-1-1m5 3h2v2.025C32.668 8.013 32.335 8 32 8s-.668.013-1 .025zM2.414 6 3 5.414l.532.532q-.3.284-.586.586zm1.553 13.618a9 9 0 0 1 12.651-12.65zM10.414 16 13 13.414l1.259 1.259a27 27 0 0 0-2.586 2.586zm1.216 46H9.618l3.746-7.491a27 27 0 0 0 3.609 2.911zm40.74 0-5.343-4.58a27 27 0 0 0 3.609-2.911L54.382 62zM32 60a25 25 0 1 1 25-25 25.03 25.03 0 0 1-25 25m20.327-42.741a27 27 0 0 0-2.586-2.586L51 13.414 53.586 16zm7.706 2.359L47.382 6.968a9 9 0 0 1 12.651 12.65" data-original="#000000"/></g></svg>