<svg xmlns="http://www.w3.org/2000/svg" xml:space="preserve" viewBox="0 0 60 60"><path fill="#205b75" d="M5 44V6a2.006 2.006 0 0 1 2-2h46a2.006 2.006 0 0 1 2 2v38z" data-original="#205b75"/><path fill="#cadbea" d="M59 52v3a1 1 0 0 1-1 1H2a1 1 0 0 1-1-1v-3l4-10h50z" data-original="#cadbea"/><path fill="#abbbcc" d="M59 52v3a1 1 0 0 1-1 1H2a1 1 0 0 1-1-1v-3z" data-original="#abbbcc"/><path fill="#114559" d="M45.27 8H50a1 1 0 0 1 1 1v28a1 1 0 0 1-1 1H10a1 1 0 0 1-1-1V9a1 1 0 0 1 1-1z" data-original="#114559"/><path fill="#e1eaf4" d="m19 52 1.749-4.371a1 1 0 0 1 .928-.629h16.646a1 1 0 0 1 .928.629L41 52z" data-original="#e1eaf4"/><path fill="#fff" d="M15 18a1 1 0 0 0 .707-1.707L14.414 15l1.293-1.293a1 1 0 0 0-1.414-1.414l-2 2a1 1 0 0 0 0 1.414l2 2A1 1 0 0 0 15 18m9.293-.293a1 1 0 0 0 1.414 0l2-2a1 1 0 0 0 0-1.414l-2-2a1 1 0 0 0-1.414 1.414L25.586 15l-1.293 1.293a1 1 0 0 0 0 1.414m-5.74.193a1 1 0 0 0 1.342-.448l2-4a1 1 0 1 0-1.79-.894l-2 4a1 1 0 0 0 .448 1.342" data-original="#ffffff"/><path fill="#e5bb33" d="M18 21a1 1 0 0 0-1-1h-3a1 1 0 0 0 0 2h3a1 1 0 0 0 1-1" data-original="#e5bb33"/><path fill="#eb6374" d="M20 21a1 1 0 0 0 1 1h8a1 1 0 0 0 0-2h-8a1 1 0 0 0-1 1" data-original="#eb6374"/><path fill="#e5bb33" d="M25 25a1 1 0 0 0-1-1h-8a1 1 0 0 0 0 2h8a1 1 0 0 0 1-1m-9 3a1 1 0 0 0 0 2h5a1 1 0 0 0 0-2z" data-original="#e5bb33"/><path fill="#82ecff" d="M41 30h3a1 1 0 0 0 0-2h-3a1 1 0 0 0 0 2" data-original="#82ecff"/><path fill="#eb6374" d="M24 29a1 1 0 0 0 1 1h12a1 1 0 0 0 0-2H25a1 1 0 0 0-1 1" data-original="#eb6374"/><path fill="#e5bb33" d="M18 32h-2a1 1 0 0 0 0 2h2a1 1 0 0 0 0-2" data-original="#e5bb33"/><path fill="#82ecff" d="M44 32H33a1 1 0 0 0 0 2h11a1 1 0 0 0 0-2" data-original="#82ecff"/><path fill="#eb6374" d="M29 32h-7a1 1 0 0 0 0 2h7a1 1 0 0 0 0-2" data-original="#eb6374"/></svg>