<svg xmlns="http://www.w3.org/2000/svg" xml:space="preserve" viewBox="0 0 60 60"><g fill="none" transform="translate(0 -1)"><path fill="#ffdc00" d="M46.19 54H27V42c0-1.66-2.91-3-6.5-3a13 13 0 0 0-2.5.23V28.34c3.163-7.375 8.558-12.735 13.35-15.11a5.4 5.4 0 0 0 2.83.77h5.6a5.4 5.4 0 0 0 2.85-.79c2.18 1.08 12.01 6.71 15.56 21.79 4 17-8 19-12 19" data-original="#ffdc00"/><path fill="#fec108" d="M58.19 35c-3.55-15.08-13.38-20.71-15.56-21.79a5.2 5.2 0 0 1-1.775.675C44.284 15.933 52.105 21.9 55.19 35c4 17-8 19-12 19h3c4 0 16-2 12-19" data-original="#fec108"/><path fill="#ffdc00" d="M47 3.17c.01 2.2-.43 7-3.95 9.75a3 3 0 0 1-.42.29 5.4 5.4 0 0 1-2.85.79h-5.6a5.4 5.4 0 0 1-2.83-.77c-.15-.1-.3-.2-.44-.31-3.52-2.75-3.95-7.55-3.95-9.75a1 1 0 0 1 1.38-.92C29.62 2.79 30.05 4 31.99 4c2.49 0 2.49-2 4.98-2s2.5 2 5 2c1.94 0 2.37-1.22 3.65-1.75a1 1 0 0 1 1.38.92" data-original="#ffdc00"/><path fill="#fec108" d="M45.62 2.25A8 8 0 0 0 44 3.352c-.014 2.271-.519 6.889-3.948 9.568a3 3 0 0 1-.42.29 5.4 5.4 0 0 1-2.85.79h3a5.4 5.4 0 0 0 2.85-.79q.222-.128.42-.29C46.57 10.17 47.01 5.37 47 3.17a1 1 0 0 0-1.38-.92" data-original="#fec108"/><ellipse cx="17.5" cy="9" fill="#ffdc00" data-original="#ffdc00" rx="6.5" ry="3"/><path fill="#ff9801" d="M24 9v9.98a32.8 32.8 0 0 0-6 9.36V23c0-1.66-2.91-3-6.5-3-.17 0-.33 0-.5.01V9c0 1.66 2.91 3 6.5 3S24 10.66 24 9" data-original="#ff9801"/><path fill="#ffdc00" d="M18 23c0 1.66-2.91 3-6.5 3S5 24.66 5 23c0-1.58 2.64-2.87 6-2.99.17-.01.33-.01.5-.01 3.59 0 6.5 1.34 6.5 3" data-original="#ffdc00"/><path fill="#ff9801" d="M18 23v16.23c-2.35.45-4 1.52-4 2.77v10c0-1.66-2.91-3-6.5-3a13 13 0 0 0-2.5.23V23c0 1.66 2.91 3 6.5 3s6.5-1.34 6.5-3" data-original="#ff9801"/><path fill="#ffeb3a" d="M14 52c0 1.66-2.91 3-6.5 3S1 53.66 1 52c0-1.25 1.65-2.32 4-2.77A13 13 0 0 1 7.5 49c3.59 0 6.5 1.34 6.5 3" data-original="#ffeb3a"/><path fill="#ffdc00" d="M14 52v5c0 1.66-2.91 3-6.5 3S1 58.66 1 57v-5c0 1.66 2.91 3 6.5 3s6.5-1.34 6.5-3" data-original="#ffdc00"/><path fill="#ffeb3a" d="M27 42c0 1.66-2.91 3-6.5 3S14 43.66 14 42c0-1.25 1.65-2.32 4-2.77a13 13 0 0 1 2.5-.23c3.59 0 6.5 1.34 6.5 3" data-original="#ffeb3a"/><path fill="#ffdc00" d="M27 42v13c0 1.66-2.91 3-6.5 3S14 56.66 14 55V42c0 1.66 2.91 3 6.5 3s6.5-1.34 6.5-3" data-original="#ffdc00"/><g fill="#000"><path d="M47.266 15.064c4.961.374 6.558 2.438 6.605 2.5a1 1 0 0 0 1.656-1.121c-.072-.108-1.461-2.092-5.5-3A4.6 4.6 0 0 0 51.7 10a5.135 5.135 0 0 0-3.824-4.658q.132-1.085.134-2.177a2 2 0 0 0-2.781-1.838c-.505.229-.974.53-1.392.893a2.58 2.58 0 0 1-1.87.78 2.58 2.58 0 0 1-1.867-.78 4.6 4.6 0 0 0-6.242 0 2.57 2.57 0 0 1-1.872.78 2.57 2.57 0 0 1-1.866-.78 5.7 5.7 0 0 0-1.388-.892 2 2 0 0 0-2.777 1.838c0 2.488.492 6.926 3.607 9.906A27.6 27.6 0 0 0 25 16.543V9c0-2.28-3.225-4-7.5-4S10 6.72 10 9v10.075C6.493 19.425 4 21 4 23v25.435C1.584 49.084 0 50.4 0 52v5c0 2.28 3.225 4 7.5 4 3.823 0 6.8-1.377 7.387-3.3A11.23 11.23 0 0 0 20.5 59c4.275 0 7.5-1.72 7.5-4V42c0-2.28-3.225-4-7.5-4q-.751 0-1.5.075V23c0-2.19-2.977-3.858-7-3.987v-7.244A11.4 11.4 0 0 0 17.5 13a11.4 11.4 0 0 0 5.5-1.231v6.82a33 33 0 0 0-1.974 2.43 1 1 0 0 0 1.612 1.181q.963-1.306 2.062-2.5l.023-.026a26.3 26.3 0 0 1 6.637-5.319 6.4 6.4 0 0 0 1.543.513l-2.578 2.406a1 1 0 0 0 1.366 1.462l4-3.731h.319v3a1 1 0 0 0 2 0V15h.319l4 3.731a1 1 0 0 0 1.366-1.462L41.1 14.853a6.3 6.3 0 0 0 1.533-.515c2.643 1.43 11.331 7.08 14.585 20.891 1.415 6.012.905 10.611-1.515 13.666C52.607 52.8 47.235 53 46.19 53H32a1 1 0 0 0 0 2h14.19c1.7 0 7.505-.351 11.08-4.863 2.818-3.559 3.456-8.729 1.894-15.366C56.7 24.3 51.222 18.233 47.266 15.064M7.5 50c3.307 0 5.5 1.2 5.5 2s-2.193 2-5.5 2S2 52.8 2 52s2.193-2 5.5-2m0 9C4.193 59 2 57.8 2 57v-2.231A11.4 11.4 0 0 0 7.5 56a11.4 11.4 0 0 0 5.5-1.231V57c0 .8-2.193 2-5.5 2m13-2c-3.307 0-5.5-1.2-5.5-2V44.769A11.4 11.4 0 0 0 20.5 46a11.4 11.4 0 0 0 5.5-1.231V55c0 .8-2.193 2-5.5 2M26 42c0 .8-2.193 2-5.5 2S15 42.8 15 42s2.193-2 5.5-2 5.5 1.2 5.5 2m-13 0v7.231A11.4 11.4 0 0 0 7.5 48q-.751 0-1.5.075V25.769A11.4 11.4 0 0 0 11.5 27a11.4 11.4 0 0 0 5.5-1.231v12.666c-2.416.649-4 1.965-4 3.565m4-19c0 .8-2.193 2-5.5 2S6 23.8 6 23s2.193-2 5.5-2 5.5 1.2 5.5 2m.5-12C14.193 11 12 9.8 12 9s2.193-2 5.5-2S23 8.2 23 9s-2.193 2-5.5 2m32.2-1c0 1.639-1.775 2.984-4 3a5 5 0 0 1-1.106-.127 11.86 11.86 0 0 0 2.921-5.53A3.06 3.06 0 0 1 49.7 10M28.868 3.78A4.5 4.5 0 0 0 31.986 5a4.5 4.5 0 0 0 3.12-1.22 2.63 2.63 0 0 1 3.74 0A4.5 4.5 0 0 0 41.967 5a4.5 4.5 0 0 0 3.121-1.22q.417-.369.917-.616c0 1.857-.345 6.448-3.567 8.965a4.3 4.3 0 0 1-2.51.859 21.6 21.6 0 0 0 2.041-4.721 1 1 0 1 0-1.928-.536A18.4 18.4 0 0 1 37.519 13h-1.028a18.5 18.5 0 0 1-2.523-5.269 1 1 0 0 0-1.927.537 21.6 21.6 0 0 0 2.043 4.725 4.3 4.3 0 0 1-2.562-.863c-3.222-2.516-3.567-7.107-3.567-8.958.331.159.639.363.913.608" data-original="#000000"/><path d="M54.135 47.653a9.6 9.6 0 0 0 1.836-5.606A1 1 0 0 0 55.02 41a1.01 1.01 0 0 0-1.047.951 7.66 7.66 0 0 1-1.407 4.46C50.615 48.875 46.913 49 46.19 49a1 1 0 0 0 0 2c.884 0 5.421-.161 7.945-3.347M34 35a1 1 0 0 0-2 0 4 4 0 0 0 4 4v1a1 1 0 0 0 2 0v-1a4 4 0 1 0 0-8v-4a2 2 0 0 1 2 2 1 1 0 0 0 2 0 4 4 0 0 0-4-4v-1a1 1 0 0 0-2 0v1a4 4 0 1 0 0 8v4a2 2 0 0 1-2-2m0-6a2 2 0 0 1 2-2v4a2 2 0 0 1-2-2m4 4a2 2 0 1 1 0 4z" data-original="#000000"/></g></g></svg>