<svg xmlns="http://www.w3.org/2000/svg" xml:space="preserve" viewBox="0 0 682.667 682.667"><defs><clipPath id="a" clipPathUnits="userSpaceOnUse"><path d="M0 512h512V0H0Z" data-original="#000000"/></clipPath></defs><g clip-path="url(#a)" transform="matrix(1.33333 0 0 -1.33333 0 682.667)"><path fill="#f9f5f3" d="M0 0v-367.033c0-18.299 14.834-33.133 33.132-33.133h314.769c18.299 0 33.133 14.834 33.133 33.133V0Z" data-original="#f9f5f3" style="fill-opacity:1;fill-rule:nonzero;stroke:none" transform="translate(106.913 407.666)"/><path fill="#f9eae0" d="M0 0v-367.033c0-18.299-14.834-33.133-33.133-33.133h23C8.166-400.166 23-385.332 23-367.033V0Z" data-original="#f9eae0" style="fill-opacity:1;fill-rule:nonzero;stroke:none" transform="translate(464.947 407.666)"/><path fill="#a0c8ff" d="m0 0-129.302 129.302-46.858-46.858L-46.858-46.857a8 8 0 0 1 5.657-2.344h7.141L2.343-12.798v7.141A8 8 0 0 1 0 0" data-original="#a0c8ff" style="fill-opacity:1;fill-rule:nonzero;stroke:none" transform="translate(225.415 118.089)"/><path fill="#91b2fa" d="m0 0-129.302 129.302-11.476-11.476L-6.973-15.98a8 8 0 0 0 2.16-3.975l7.156 7.157v7.141A8 8 0 0 1 0 0" data-original="#91b2fa" style="fill-opacity:1;fill-rule:nonzero;stroke:none" transform="translate(225.415 118.089)"/><path fill="#f9eae0" d="M0 0v35.544a8 8 0 0 1-.515 2.799L-46.343-7.485A8 8 0 0 1-43.544-8H-8a8 8 0 0 1 8 8" data-original="#f9eae0" style="fill-opacity:1;fill-rule:nonzero;stroke:none" transform="translate(227.758 76.888)"/><path fill="#fa8ebb" d="m0 0-23.429-23.429c-6.469-6.47-6.469-16.959 0-23.429L0-70.287l46.858 46.858L23.429 0C16.959 6.47 6.47 6.47 0 0" data-original="#fa8ebb" style="fill-opacity:1;fill-rule:nonzero;stroke:none" transform="translate(52.334 267.74)"/><path fill="#f57fb0" d="M0 0c.078-.075.162-.138.238-.215L35.143-35.12 46.62-23.644 23.19-.215C16.797 6.178 6.486 6.242 0 0" data-original="#f57fb0" style="fill-opacity:1;fill-rule:nonzero;stroke:none" transform="translate(52.573 267.955)"/><path fill="#ffce69" d="M0 0h-314.769c-18.298 0-33.132-14.834-33.132-33.132v-49.701H33.133v49.701C33.133-14.834 18.299 0 0 0" data-original="#ffce69" style="fill-opacity:1;fill-rule:nonzero;stroke:none" transform="translate(454.814 471.367)"/><path fill="#ffbd61" d="M0 0h-23c18.299 0 33.133-14.834 33.133-33.132v-49.701h23v49.701C33.133-14.834 18.299 0 0 0" data-original="#ffbd61" style="fill-opacity:1;fill-rule:nonzero;stroke:none" transform="translate(454.814 471.367)"/><path fill="#bdd3dd" d="M0 0c0-9.149 7.417-16.567 16.567-16.567S33.134-9.149 33.134 0v33.133c0 9.15-7.417 16.567-16.567 16.567S0 42.283 0 33.133Z" data-original="#bdd3dd" style="fill-opacity:1;fill-rule:nonzero;stroke:none" transform="translate(156.613 454.8)"/><path fill="#bdd3dd" d="M0 0c0-9.149 7.417-16.567 16.567-16.567 9.149 0 16.567 7.418 16.567 16.567v33.133c0 9.15-7.418 16.567-16.567 16.567S0 42.283 0 33.133Z" data-original="#bdd3dd" style="fill-opacity:1;fill-rule:nonzero;stroke:none" transform="translate(405.113 454.8)"/><path fill="#bdd3dd" d="M0 0c0-9.149 7.417-16.567 16.567-16.567 9.149 0 16.567 7.418 16.567 16.567v33.133c0 9.15-7.418 16.567-16.567 16.567S0 42.283 0 33.133Z" data-original="#bdd3dd" style="fill-opacity:1;fill-rule:nonzero;stroke:none" transform="translate(239.446 454.8)"/><path fill="#bdd3dd" d="M0 0c0-9.149 7.417-16.567 16.567-16.567S33.134-9.149 33.134 0v33.133c0 9.15-7.417 16.567-16.567 16.567S0 42.283 0 33.133Z" data-original="#bdd3dd" style="fill-opacity:1;fill-rule:nonzero;stroke:none" transform="translate(322.28 454.8)"/><path fill="#abc4d6" d="M0 0a16.5 16.5 0 0 1-11.5-4.657c3.119-3.013 5.067-7.231 5.067-11.91V-49.7c0-4.679-1.948-8.897-5.067-11.909A16.5 16.5 0 0 1 0-66.267c9.149 0 16.567 7.417 16.567 16.567v33.133C16.567-7.417 9.149 0 0 0" data-original="#abc4d6" style="fill-opacity:1;fill-rule:nonzero;stroke:none" transform="translate(421.68 504.5)"/><path fill="#abc4d6" d="M0 0c-4.47 0-8.52-1.779-11.5-4.657 3.12-3.013 5.067-7.231 5.067-11.91V-49.7c0-4.679-1.947-8.897-5.067-11.909A16.5 16.5 0 0 1 0-66.267c9.15 0 16.567 7.417 16.567 16.567v33.133C16.567-7.417 9.15 0 0 0" data-original="#abc4d6" style="fill-opacity:1;fill-rule:nonzero;stroke:none" transform="translate(338.847 504.5)"/><path fill="#abc4d6" d="M0 0a16.5 16.5 0 0 1-11.5-4.657c3.119-3.013 5.067-7.231 5.067-11.91V-49.7c0-4.679-1.948-8.897-5.067-11.909A16.5 16.5 0 0 1 0-66.267c9.149 0 16.567 7.417 16.567 16.567v33.133C16.567-7.417 9.149 0 0 0" data-original="#abc4d6" style="fill-opacity:1;fill-rule:nonzero;stroke:none" transform="translate(256.014 504.5)"/><path fill="#abc4d6" d="M0 0a16.5 16.5 0 0 1-11.5-4.657c3.12-3.013 5.067-7.231 5.067-11.91V-49.7c0-4.679-1.947-8.897-5.067-11.909A16.5 16.5 0 0 1 0-66.267c9.15 0 16.567 7.417 16.567 16.567v33.133C16.567-7.417 9.15 0 0 0" data-original="#abc4d6" style="fill-opacity:1;fill-rule:nonzero;stroke:none" transform="translate(173.18 504.5)"/><path fill="none" stroke="#000" stroke-linecap="round" stroke-linejoin="round" stroke-miterlimit="10" stroke-width="15" d="m0 0-151.994 151.994c-6.47 6.47-6.47 16.959 0 23.429l23.429 23.429c6.469 6.47 16.959 6.47 23.428 0L46.858 46.858V0Z" data-original="#000000" style="stroke-width:15;stroke-linecap:round;stroke-linejoin:round;stroke-miterlimit:10;stroke-dasharray:none;stroke-opacity:1" transform="translate(180.9 68.888)"/><path fill="none" stroke="#000" stroke-linecap="round" stroke-linejoin="round" stroke-miterlimit="10" stroke-width="15" d="m0 0 11.714-11.714" data-original="#000000" style="stroke-width:15;stroke-linecap:round;stroke-linejoin:round;stroke-miterlimit:10;stroke-dasharray:none;stroke-opacity:1" transform="translate(227.758 68.888)"/><path fill="none" stroke="#000" stroke-linecap="round" stroke-linejoin="round" stroke-miterlimit="10" stroke-width="15" d="m0 0-46.858-46.857" data-original="#000000" style="stroke-width:15;stroke-linecap:round;stroke-linejoin:round;stroke-miterlimit:10;stroke-dasharray:none;stroke-opacity:1" transform="translate(99.192 244.311)"/><path fill="none" stroke="#000" stroke-linecap="round" stroke-linejoin="round" stroke-miterlimit="10" stroke-width="15" d="m0 0-46.858-46.858" data-original="#000000" style="stroke-width:15;stroke-linecap:round;stroke-linejoin:round;stroke-miterlimit:10;stroke-dasharray:none;stroke-opacity:1" transform="translate(227.758 115.746)"/><path fill="none" stroke="#000" stroke-linecap="round" stroke-linejoin="round" stroke-miterlimit="10" stroke-width="15" d="m0 0 128.565-128.565" data-original="#000000" style="stroke-width:15;stroke-linecap:round;stroke-linejoin:round;stroke-miterlimit:10;stroke-dasharray:none;stroke-opacity:1" transform="translate(75.763 220.882)"/><path fill="none" stroke="#000" stroke-linecap="round" stroke-linejoin="round" stroke-miterlimit="10" stroke-width="15" d="M0 0v108.352c0 18.298-14.834 33.132-33.133 33.132H-49.7" data-original="#000000" style="stroke-width:15;stroke-linecap:round;stroke-linejoin:round;stroke-miterlimit:10;stroke-dasharray:none;stroke-opacity:1" transform="translate(487.947 329.882)"/><path fill="none" stroke="#000" stroke-linecap="round" stroke-linejoin="round" stroke-miterlimit="10" stroke-width="15" d="M0 0h29.634c18.299 0 33.133 14.834 33.133 33.133v259.248" data-original="#000000" style="stroke-width:15;stroke-linecap:round;stroke-linejoin:round;stroke-miterlimit:10;stroke-dasharray:none;stroke-opacity:1" transform="translate(425.18 7.5)"/><path fill="none" stroke="#000" stroke-linecap="round" stroke-linejoin="round" stroke-miterlimit="10" stroke-width="15" d="M0 0v-100.953c0-18.298 14.834-33.132 33.132-33.132h255.136" data-original="#000000" style="stroke-width:15;stroke-linecap:round;stroke-linejoin:round;stroke-miterlimit:10;stroke-dasharray:none;stroke-opacity:1" transform="translate(106.913 141.586)"/><path fill="none" stroke="#000" stroke-linecap="round" stroke-linejoin="round" stroke-miterlimit="10" stroke-width="15" d="M0 0h-16.568c-18.299 0-33.133-14.834-33.133-33.132v-200.354" data-original="#000000" style="stroke-width:15;stroke-linecap:round;stroke-linejoin:round;stroke-miterlimit:10;stroke-dasharray:none;stroke-opacity:1" transform="translate(156.613 471.367)"/><path fill="none" stroke="#000" stroke-linecap="round" stroke-linejoin="round" stroke-miterlimit="10" stroke-width="15" d="M0 0h-49.7" data-original="#000000" style="stroke-width:15;stroke-linecap:round;stroke-linejoin:round;stroke-miterlimit:10;stroke-dasharray:none;stroke-opacity:1" transform="translate(239.446 471.367)"/><path fill="none" stroke="#000" stroke-linecap="round" stroke-linejoin="round" stroke-miterlimit="10" stroke-width="15" d="M0 0h-49.701" data-original="#000000" style="stroke-width:15;stroke-linecap:round;stroke-linejoin:round;stroke-miterlimit:10;stroke-dasharray:none;stroke-opacity:1" transform="translate(322.28 471.367)"/><path fill="none" stroke="#000" stroke-linecap="round" stroke-linejoin="round" stroke-miterlimit="10" stroke-width="15" d="M0 0h-49.527" data-original="#000000" style="stroke-width:15;stroke-linecap:round;stroke-linejoin:round;stroke-miterlimit:10;stroke-dasharray:none;stroke-opacity:1" transform="translate(405.114 471.367)"/><path fill="none" stroke="#000" stroke-linecap="round" stroke-linejoin="round" stroke-miterlimit="10" stroke-width="15" d="M0 0h381.034" data-original="#000000" style="stroke-width:15;stroke-linecap:round;stroke-linejoin:round;stroke-miterlimit:10;stroke-dasharray:none;stroke-opacity:1" transform="translate(106.913 388.534)"/><path fill="none" stroke="#000" stroke-linecap="round" stroke-linejoin="round" stroke-miterlimit="10" stroke-width="15" d="M0 0h265.067" data-original="#000000" style="stroke-width:15;stroke-linecap:round;stroke-linejoin:round;stroke-miterlimit:10;stroke-dasharray:none;stroke-opacity:1" transform="translate(164.896 338.834)"/><path fill="none" stroke="#000" stroke-linecap="round" stroke-linejoin="round" stroke-miterlimit="10" stroke-width="15" d="M0 0h265.067" data-original="#000000" style="stroke-width:15;stroke-linecap:round;stroke-linejoin:round;stroke-miterlimit:10;stroke-dasharray:none;stroke-opacity:1" transform="translate(164.896 289.133)"/><path fill="none" stroke="#000" stroke-linecap="round" stroke-linejoin="round" stroke-miterlimit="10" stroke-width="15" d="M0 0h265.067" data-original="#000000" style="stroke-width:15;stroke-linecap:round;stroke-linejoin:round;stroke-miterlimit:10;stroke-dasharray:none;stroke-opacity:1" transform="translate(164.896 239.434)"/><path fill="none" stroke="#000" stroke-linecap="round" stroke-linejoin="round" stroke-miterlimit="10" stroke-width="15" d="M0 0h265.067" data-original="#000000" style="stroke-width:15;stroke-linecap:round;stroke-linejoin:round;stroke-miterlimit:10;stroke-dasharray:none;stroke-opacity:1" transform="translate(164.896 189.734)"/><path fill="none" stroke="#000" stroke-linecap="round" stroke-linejoin="round" stroke-miterlimit="10" stroke-width="15" d="M0 0h173.95" data-original="#000000" style="stroke-width:15;stroke-linecap:round;stroke-linejoin:round;stroke-miterlimit:10;stroke-dasharray:none;stroke-opacity:1" transform="translate(256.013 140.033)"/><path fill="none" stroke="#000" stroke-linecap="round" stroke-linejoin="round" stroke-miterlimit="10" stroke-width="15" d="M0 0c0-9.149 7.417-16.567 16.567-16.567S33.134-9.149 33.134 0v33.133c0 9.15-7.417 16.567-16.567 16.567S0 42.283 0 33.133Z" data-original="#000000" style="stroke-width:15;stroke-linecap:round;stroke-linejoin:round;stroke-miterlimit:10;stroke-dasharray:none;stroke-opacity:1" transform="translate(156.613 454.8)"/><path fill="none" stroke="#000" stroke-linecap="round" stroke-linejoin="round" stroke-miterlimit="10" stroke-width="15" d="M0 0c0-9.149 7.417-16.567 16.567-16.567 9.149 0 16.567 7.418 16.567 16.567v33.133c0 9.15-7.418 16.567-16.567 16.567S0 42.283 0 33.133Z" data-original="#000000" style="stroke-width:15;stroke-linecap:round;stroke-linejoin:round;stroke-miterlimit:10;stroke-dasharray:none;stroke-opacity:1" transform="translate(405.113 454.8)"/><path fill="none" stroke="#000" stroke-linecap="round" stroke-linejoin="round" stroke-miterlimit="10" stroke-width="15" d="M0 0c0-9.149 7.417-16.567 16.567-16.567 9.149 0 16.567 7.418 16.567 16.567v33.133c0 9.15-7.418 16.567-16.567 16.567S0 42.283 0 33.133Z" data-original="#000000" style="stroke-width:15;stroke-linecap:round;stroke-linejoin:round;stroke-miterlimit:10;stroke-dasharray:none;stroke-opacity:1" transform="translate(239.446 454.8)"/><path fill="none" stroke="#000" stroke-linecap="round" stroke-linejoin="round" stroke-miterlimit="10" stroke-width="15" d="M0 0c0-9.149 7.417-16.567 16.567-16.567S33.134-9.149 33.134 0v33.133c0 9.15-7.417 16.567-16.567 16.567S0 42.283 0 33.133Z" data-original="#000000" style="stroke-width:15;stroke-linecap:round;stroke-linejoin:round;stroke-miterlimit:10;stroke-dasharray:none;stroke-opacity:1" transform="translate(322.28 454.8)"/></g></svg>