<svg xmlns="http://www.w3.org/2000/svg" xml:space="preserve" viewBox="0 0 256 256"><path fill="#efefef" d="M195.69 34.169v137.87h-6.78c-4.94 0-9.58-2.34-12.53-6.3l-5.98-8.03a15.62 15.62 0 0 0-12.53-6.29h-17.74a14.02 14.02 0 0 0-8.41-2.82h-31.25c-5.37 0-10.51 2.15-14.27 5.98l-4.84 4.93c-3.76 3.83-8.9 5.99-14.27 5.99h-6.78V9.089h110.3z" data-original="#efefef"/><path fill="#afafaf" d="M195.69 165.039v7h-6.78c-4.94 0-9.58-2.34-12.53-6.3l-5.98-8.03a15.62 15.62 0 0 0-12.53-6.29h-17.74a14.02 14.02 0 0 0-8.41-2.82h-31.25c-5.37 0-10.51 2.15-14.27 5.98l-4.84 4.93c-3.76 3.83-8.9 5.99-14.27 5.99h-6.78v-7h6.78c3.46 0 6.85-1.42 9.28-3.89l4.84-4.93c5.03-5.14 12.05-8.08 19.26-8.08h31.25c3.66 0 7.3.99 10.48 2.82h15.67c7.11 0 13.89 3.4 18.14 9.11l5.98 8.03a8.68 8.68 0 0 0 6.92 3.48z" data-original="#afafaf"/><path fill="#ffb69f" d="M209.34 172.039v62.01h-26.99c-3.03 0-6.02.69-8.74 2.01l-9.77 4.75a20.1 20.1 0 0 1-8.74 2.01h-54.98c-3.86 0-7.18-2.5-8.37-5.99h-8.22c-4.65 0-9.16-1.65-12.71-4.66a19.57 19.57 0 0 0-12.71-4.67H46.66v-62h20.43c5.37 0 10.51-2.16 14.27-5.99l4.84-4.93c3.76-3.83 8.9-5.98 14.27-5.98h31.25c3.12 0 6.05 1.05 8.41 2.82h17.74c4.94 0 9.58 2.33 12.53 6.29l5.98 8.03c2.95 3.96 7.59 6.3 12.53 6.3z" data-original="#ffb69f"/><path fill="#7d7b79" d="M222.672 159.17h26.995v87.741h-26.995z" data-original="#7d7b79"/><path fill="#fc5d3d" d="M6.333 152.625h26.995v87.741H6.333z" data-original="#fc5d3d"/><path fill="#efefef" d="M209.337 167.42v71.241a3 3 0 0 0 3 3h10.335V164.42h-10.335a3 3 0 0 0-3 3M46.663 232.116v-71.241a3 3 0 0 0-3-3H33.328v77.241h10.335a3 3 0 0 0 3-3" data-original="#efefef"/><path fill="#72c2e9" d="M160.42 71.506v41.19h-18.03l-10.14-16.33c-1.96-3.15-6.54-3.15-8.5 0l-10.14 16.33H95.58v-41.19z" data-original="#72c2e9"/><path fill="#afafaf" d="M151.23 55.756v15.75h-10v-15.75c0-7.3-5.94-13.23-13.23-13.23s-13.23 5.93-13.23 13.23v15.75h-10v-15.75c0-12.83 10.4-23.23 23.23-23.23 12.832 0 23.23 10.393 23.23 23.23" data-original="#afafaf"/><path fill="#f0c020" d="M145 131.386h-34c-3.92 0-6.31-4.31-4.25-7.64l6.86-11.05 10.14-16.33c1.96-3.15 6.54-3.15 8.5 0l10.14 16.33 6.86 11.05c2.06 3.33-.33 7.64-4.25 7.64" data-original="#f0c020"/><path fill="#efefef" d="M240.661 239.356h-7.307a2.5 2.5 0 1 1 0-5h4.807v-51.193a2.5 2.5 0 1 1 5 0v53.693a2.5 2.5 0 0 1-2.5 2.5m0-63.693a2.5 2.5 0 0 1-2.5-2.5v-4.275a2.5 2.5 0 1 1 5 0v4.275a2.5 2.5 0 0 1-2.5 2.5" data-original="#efefef"/><path fill="#ffcbc3" d="M22.646 233.147h-7.307a2.5 2.5 0 0 1-2.5-2.5v-52.693a2.5 2.5 0 1 1 5 0v50.193h4.807a2.5 2.5 0 1 1 0 5m-7.307-62.693a2.5 2.5 0 0 1-2.5-2.5v-5.275a2.5 2.5 0 1 1 5 0v5.275a2.5 2.5 0 0 1-2.5 2.5" data-original="#ffcbc3"/><path fill="#c5e5fe" d="M152.42 107.195a2.5 2.5 0 0 1-2.5-2.5v-22.69h-33.34a2.5 2.5 0 1 1 0-5h35.84a2.5 2.5 0 0 1 2.5 2.5v25.19a2.5 2.5 0 0 1-2.5 2.5m-45.84-25.19h-3a2.5 2.5 0 1 1 0-5h3a2.5 2.5 0 1 1 0 5" data-original="#c5e5fe"/><path d="M85.72 158.63c.97-.98.95-2.57-.03-3.54-.96-.93-2.6-.92-3.54.04a2.493 2.493 0 0 0 .04 3.53 2.486 2.486 0 0 0 3.53-.03" data-original="#000000"/><path d="M30.828 237.866H6.333a2.5 2.5 0 1 0 0 5h26.995a2.5 2.5 0 0 0 2.5-2.5v-2.75h7.835c3.033 0 5.5-2.467 5.5-5.5v-2.121h8.947c4.072 0 8.01 1.446 11.093 4.077a22.17 22.17 0 0 0 14.327 5.253h6.589a11.34 11.34 0 0 0 10.001 5.99h54.98c3.373 0 6.772-.781 9.833-2.261l9.77-4.75a17.6 17.6 0 0 1 7.647-1.759h24.49v2.115c0 3.03 2.46 5.5 5.5 5.5h7.832v2.751a2.5 2.5 0 0 0 2.5 2.5h26.995a2.5 2.5 0 1 0 0-5h-24.495V161.67h24.495a2.5 2.5 0 1 0 0-5h-26.995a2.5 2.5 0 0 0-2.5 2.5v2.75h-7.832c-3.04 0-5.5 2.47-5.5 5.5v2.12h-8.65V34.169c0-.68-.327-1.362-.732-1.768l-25.079-25.08a2.6 2.6 0 0 0-1.768-.732H60.31a2.5 2.5 0 0 0-2.5 2.5V163h-8.646v-2.125c0-3.033-2.467-5.5-5.5-5.5h-7.835v-2.75a2.5 2.5 0 0 0-2.5-2.5H6.333a2.5 2.5 0 1 0 0 5h24.495zM209.34 184.87a2.5 2.5 0 0 0 2.5-2.5v-14.95c0-.28.22-.5.5-.5h7.832v72.24h-7.832c-.28 0-.5-.22-.5-.5v-36.29a2.5 2.5 0 0 0-5 0v29.175h-24.49a22.65 22.65 0 0 0-9.832 2.262l-9.766 4.748a17.7 17.7 0 0 1-7.652 1.76h-54.98a6.33 6.33 0 0 1-6.324-6.739c.197-3.335 3.115-5.948 6.644-5.948.027 0 .051-.007.078-.008h31.91a2.5 2.5 0 1 0 0-5c-.383 0-43.347-.003-43.728.005a6.355 6.355 0 0 1-6.298-6.347 6.36 6.36 0 0 1 6.35-6.35h42.97a2.5 2.5 0 1 0 0-5h-48.38c-3.501 0-6.35-2.849-6.35-6.35s2.849-6.35 6.347-6.35c19.289.019-4.441 0 48.383 0a2.5 2.5 0 1 0 0-5c-.404 0-38.214-.004-38.618.007-3.464-.037-6.272-2.873-6.272-6.357a6.347 6.347 0 0 1 6.34-6.34h38.769l3.451 5.201c3.419 5.209 10.497 6.696 15.786 3.309 5.4-3.484 6.867-10.683 3.336-15.984l-8.738-13.155h12.096c4.13 0 8.06 1.98 10.52 5.29l5.98 8.03c3.41 4.57 8.85 7.31 14.54 7.31h17.93v7.83a2.5 2.5 0 0 0 2.498 2.501M173.11 15.125l16.544 16.544H173.11zM67.09 167.99c3.59 0 7.18-.87 10.36-2.53 1.193-.608 1.723-2.119 1.069-3.36-.675-1.32-2.272-1.665-3.37-1.07a17.7 17.7 0 0 1-8.06 1.97h-4.28V11.589H168.11v22.58a2.5 2.5 0 0 0 2.5 2.5h22.579V169.54h-4.279c-4.12 0-8.061-1.98-10.53-5.3l-5.97-8.03c-3.41-4.57-8.841-7.3-14.54-7.3h-16.94a16.5 16.5 0 0 0-9.21-2.81h-31.25c-3.42 0-6.84.79-9.9 2.29a2.49 2.49 0 0 0-1.149 3.34c.59 1.21 2.12 1.74 3.35 1.15 2.38-1.17 5.04-1.78 7.7-1.78h31.25c4.055 0 7.648 2.146 9.677 5.254l.003.004.028.043 8.921 13.432c2.014 3.024 1.121 7.075-1.877 9.009-2.987 1.913-6.98 1.083-8.909-1.856l-4.199-6.33a2.5 2.5 0 0 0-2.083-1.118H93.17c-6.253 0-11.34 5.087-11.34 11.34 0 2.351.716 4.537 1.941 6.351-7.19-.008-11.781 5.453-11.781 11.349 0 5.01 3.263 9.272 7.774 10.773-5.729 7.415-.432 18.277 8.985 18.277h2.017c-1.348 1.941-2.048 4.224-1.975 6.697H83.53c-4.061 0-8-1.444-11.087-4.062a22.1 22.1 0 0 0-14.333-5.268h-8.947V167.99zm-23.427-7.615a.5.5 0 0 1 .5.5v71.241a.5.5 0 0 1-.5.5h-7.835v-72.241z" data-original="#000000"/><circle cx="209.34" cy="192.37" r="2.5" data-original="#000000"/><path d="M95.58 115.195h13.536l-4.492 7.235c-3.097 5.007.501 11.455 6.376 11.455h34c5.881 0 9.471-6.453 6.374-11.459l-4.49-7.231h13.536a2.5 2.5 0 0 0 2.5-2.5v-41.19a2.5 2.5 0 0 0-2.5-2.5h-6.689v-13.25c0-14.188-11.543-25.73-25.73-25.73s-25.73 11.542-25.73 25.73v13.25H95.58a2.5 2.5 0 0 0-2.5 2.5v41.19a2.5 2.5 0 0 0 2.5 2.5M145 128.886h-34c-1.963 0-3.154-2.16-2.126-3.821l16.999-27.378c.982-1.579 3.274-1.576 4.253-.002l16.998 27.376c1.032 1.669-.165 3.825-2.124 3.825m-37.73-73.131c0-11.431 9.3-20.73 20.73-20.73s20.73 9.299 20.73 20.73v13.25h-5v-13.25c0-8.673-7.057-15.73-15.73-15.73s-15.73 7.057-15.73 15.73v13.25h-5zm10 13.25v-13.25c0-5.917 4.813-10.73 10.73-10.73s10.73 4.813 10.73 10.73v13.25zm-19.19 5h59.84v36.19h-14.14l-9.407-15.15c-2.94-4.726-9.81-4.72-12.747.002l-9.405 15.148H98.08z" data-original="#000000"/><path d="M128 119.235a2.5 2.5 0 0 0-2.5 2.5v1.042a2.5 2.5 0 1 0 5 0v-1.042a2.5 2.5 0 0 0-2.5-2.5m0-14.167a2.5 2.5 0 0 0-2.5 2.5v5.607a2.5 2.5 0 1 0 5 0v-5.607a2.5 2.5 0 0 0-2.5-2.5" data-original="#000000"/></svg>