<svg xmlns="http://www.w3.org/2000/svg" xml:space="preserve" viewBox="0 0 64 64"><path fill="#c6d5e0" d="M30.526 48.954v-9.43h2.95v9.43z" data-original="#c6d5e0"/><path fill="#ecf8f9" d="M4.44 7.4h55.11v33.26H4.44z" data-original="#ecf8f9"/><path fill="#dde6ed" d="M4.44 7.4h55.11v2.93H4.44zm36.19 46.7-7.08-7.04-1.5 1.49-1.5-1.49-7.08 7.04c-.58.57-.58 1.5 0 2.08.58.57 1.51.57 2.09 0l6.49-6.45 6.49 6.45c.58.57 1.51.57 2.09 0 .58-.58.58-1.51 0-2.08" data-original="#dde6ed"/><path fill="#19a7ce" d="M39.9 20.78c0 1.99-.74 3.8-1.95 5.2l-5.92-5.22 3.94-6.81a7.9 7.9 0 0 1 3.93 6.83" data-original="#19a7ce"/><path fill="#0eb4db" d="m35.97 13.95-3.94 6.81-7.69 1.98c-.16-.63-.25-1.28-.25-1.96 0-4.36 3.54-7.9 7.9-7.9 1.46 0 2.81.39 3.98 1.07" data-original="#0eb4db"/><path fill="#146c94" d="M32.72 28.65a7.92 7.92 0 0 1-8.38-5.91l7.69-1.98z" data-original="#146c94"/><path fill="#0890b5" d="M37.95 25.98a7.9 7.9 0 0 1-5.24 2.68l-.69-7.89z" data-original="#0890b5"/><circle cx="9.42" cy="35.14" r="2.07" fill="#0eb4db" data-original="#0eb4db"/><circle cx="27.76" cy="35.14" r="2.07" fill="#19a7ce" data-original="#19a7ce"/><circle cx="46.1" cy="35.14" r="2.07" fill="#0890b5" data-original="#0890b5"/><path d="M59.51 7H4.49a.49.49 0 0 0-.49.49V40.6c0 .27.22.49.49.49h25.54v5.72l-6.9 6.83c-1.81 1.78 1 4.58 2.78 2.76l6.14-6.08 6.13 6.08c1.78 1.82 4.6-1 2.77-2.76l-7-6.94v-5.62h25.54c.28 0 .49-.22.49-.49V7.49c.02-.27-.2-.49-.47-.49m-54.53.98h54.04v1.94H4.98zm20.25 47.74c-.89.9-2.3-.49-1.4-1.37l6.72-6.66 1.39 1.37zm15.04-1.38c.91.89-.51 2.28-1.4 1.37l-6.71-6.66 1.39-1.37zm-7.29-7.47-.92.91-1.04-1.02V41.1h1.96zm-28-6.76V10.9h54.04v29.21z" data-original="#000000"/><path d="M36.2 13.6a8.33 8.33 0 0 0-4.2-1.14c-5.39-.08-9.53 5.28-8.12 10.45.93 3.6 4.21 6.26 8.12 6.26 2.45.02 4.77-1.11 6.31-2.86a8.28 8.28 0 0 0 2.07-5.49 8.33 8.33 0 0 0-4.18-7.22m-4.2-.16c1.17 0 3.26.76 3.26.76l-3.58 6.19-6.95 1.78c-.09-.44-.13-.89-.13-1.36 0-4.06 3.32-7.37 7.4-7.37m.6 8.55 4.62 4.05a7.25 7.25 0 0 1-4.08 2.05c-.01 0-.54-6.1-.54-6.1m-.43 6.24c-3.27 0-6.23-2.17-7.2-5.11l6.58-1.69c.01.01.67 6.8.62 6.8m5.7-2.92-5.24-4.59 3.49-6.02a7.39 7.39 0 0 1 3.28 6.13c0 1.68-.58 3.23-1.53 4.48M9.46 32.57c-1.41 0-2.55 1.15-2.55 2.55 0 1.41 1.14 2.55 2.55 2.55 1.4 0 2.55-1.14 2.55-2.55.01-1.4-1.14-2.55-2.55-2.55m0 4.11c-.87 0-1.57-.71-1.57-1.57s.7-1.57 1.57-1.57c.86 0 1.57.71 1.57 1.57 0 .87-.7 1.57-1.57 1.57m10.53-3.03H14.1a.49.49 0 0 0 0 .98h5.89a.49.49 0 0 0 0-.98m0 1.96H14.1a.49.49 0 0 0 0 .98h5.89a.49.49 0 0 0 0-.98m7.78-3.04a2.56 2.56 0 0 0-2.55 2.55c0 1.41 1.15 2.55 2.55 2.55 1.41 0 2.55-1.14 2.55-2.55 0-1.4-1.14-2.55-2.55-2.55m0 4.11c-.86 0-1.57-.71-1.57-1.57s.71-1.57 1.57-1.57 1.57.71 1.57 1.57c0 .87-.71 1.57-1.57 1.57m10.53-3.03h-5.9a.49.49 0 0 0 0 .98h5.89a.49.49 0 0 0 .01-.98m0 1.96h-5.9a.49.49 0 0 0 0 .98h5.89a.49.49 0 0 0 .01-.98m7.77-3.04a2.56 2.56 0 0 0-2.55 2.55 2.554 2.554 0 0 0 5.11 0c0-1.4-1.15-2.55-2.56-2.55m0 4.11c-.86 0-1.57-.71-1.57-1.57s.71-1.57 1.57-1.57c.87 0 1.58.71 1.58 1.57 0 .87-.71 1.57-1.58 1.57m10.54-3.03h-5.89a.49.49 0 0 0 0 .98h5.89a.49.49 0 0 0 0-.98m0 1.96h-5.89a.49.49 0 0 0 0 .98h5.89a.49.49 0 0 0 0-.98" data-original="#000000"/></svg>