<svg xmlns="http://www.w3.org/2000/svg" xml:space="preserve" viewBox="0 0 512 512"><g fill-rule="evenodd"><path fill="#dbff78" d="M403.12 13.397c15.42 10.831 25.5 28.749 25.5 49.023s-10.08 38.193-25.5 49.024c-15.42-10.831-25.5-28.749-25.5-49.024s10.08-38.193 25.5-49.023" data-original="#dbff78"/><path fill="#baed2c" d="M403.12 13.397c15.42 10.831 25.5 28.749 25.5 49.023s-10.081 38.193-25.5 49.024z" data-original="#baed2c"/><path fill="#dbff78" d="M330.621 105.991c0 44.088 33.322 72.5 72.5 72.5 0-44.312-23.15-83.06-72.5-72.5" data-original="#dbff78"/><path fill="#baed2c" d="M330.621 105.991c0 44.088 33.322 72.5 72.5 72.5q-32.374-46.388-72.5-72.5" data-original="#baed2c"/><path fill="#dbff78" d="M475.621 105.991c0 44.088-33.322 72.5-72.5 72.5 0-44.312 23.151-83.06 72.5-72.5" data-original="#dbff78"/><path fill="#baed2c" d="M475.621 105.991c0 44.088-33.322 72.5-72.5 72.5q32.375-46.388 72.5-72.5" data-original="#baed2c"/><path fill="#b7bfc9" d="M170.401 406.168a122.6 122.6 0 0 1-20.512-2.576c-65.84-13.987-107.875-78.699-93.888-144.538 10.901-51.317 52.62-88.169 101.668-95.309l2.078 39.567c-31.636 6.05-58.128 30.438-65.241 63.921-9.469 44.574 18.989 88.384 63.563 97.853a83 83 0 0 0 10.255 1.52l2.078 39.562z" data-original="#b7bfc9"/><path fill="#cad0d7" d="M166.781 405.968a122 122 0 0 1-16.892-2.376c-65.84-13.987-107.875-78.699-93.888-144.538 10.635-50.064 50.602-86.355 98.089-94.727l1.432 27.272c-36.03 6.89-66.201 34.665-74.301 72.799-10.784 50.764 21.627 100.659 72.391 111.443a95 95 0 0 0 11.679 1.731l1.491 28.397z" data-original="#cad0d7"/><path fill="#b6dbff" d="m265.163 257.627 27.563-27.563c3.136-3.136 3.136-8.268 0-11.404l-15.772-15.772-38.966 38.966 15.772 15.772c3.136 3.136 8.267 3.136 11.404 0z" data-original="#b6dbff"/><path fill="#cee7ff" d="m274.536 248.254 18.19-18.19c3.136-3.136 3.136-8.268 0-11.404l-15.772-15.772-29.594 29.594 15.772 15.772c3.136 3.136 8.267 3.136 11.404 0" data-original="#cee7ff"/></g><path fill="#b6dbff" d="m75.828 69.788 29.037-29.037 29.496 29.496-29.037 29.037z" data-original="#b6dbff"/><path fill="#cee7ff" d="m85.2 60.417 19.666-19.666 29.496 29.496-19.665 19.666z" data-original="#cee7ff"/><path fill="#4eb1fc" fill-rule="evenodd" d="m49.871 58.516 14.815 14.815c2.093 2.093 5.517 2.093 7.611 0l36.134-36.135c2.093-2.093 2.093-5.517 0-7.61L93.616 14.771c-2.093-2.093-5.517-2.093-7.61 0L49.872 50.905c-2.093 2.093-2.093 5.517 0 7.61z" data-original="#4eb1fc"/><path fill="#85caff" fill-rule="evenodd" d="m81.666 63.961 26.764-26.765c2.093-2.093 2.093-5.517 0-7.61L93.615 14.771c-2.093-2.093-5.517-2.093-7.61 0L59.243 41.533c-2.093 2.093-2.093 5.517 0 7.61l14.815 14.815c2.092 2.092 5.514 2.093 7.608.003" data-original="#85caff"/><path fill="#4eb1fc" fill-rule="evenodd" d="m96.398 108.23 46.931-46.931c3.572-3.572 9.418-3.572 12.99 0l124.617 124.617c3.572 3.572 3.572 9.418 0 12.99l-46.931 46.931c-3.572 3.572-9.418 3.572-12.99 0L96.398 121.22c-3.572-3.572-3.572-9.418 0-12.99" data-original="#4eb1fc"/><path fill="#85caff" fill-rule="evenodd" d="m105.771 98.857 37.558-37.558c3.572-3.572 9.418-3.572 12.99 0l124.617 124.617c3.572 3.572 3.572 9.415.002 12.988l-37.56 37.56c-3.572 3.572-9.418 3.572-12.99 0L105.771 111.847c-3.572-3.572-3.572-9.418 0-12.99" data-original="#85caff"/><circle cx="158.707" cy="183.529" r="34.248" fill="#918591" data-original="#918591" transform="rotate(-9.1 159.023 183.85)"/><path fill="#a79ba7" fill-rule="evenodd" d="M155.843 217.656c-17.574-1.455-31.384-16.178-31.384-34.127s13.81-32.672 31.384-34.127c17.574 1.455 31.384 16.178 31.384 34.127s-13.81 32.672-31.384 34.127" data-original="#a79ba7"/><path fill="#cad0d7" fill-rule="evenodd" d="M160.734 329.822H57.689c-19.271 0-35.037 15.766-35.037 35.037v97.421h173.119v-97.421c0-19.271-15.766-35.037-35.037-35.037" data-original="#cad0d7"/><path fill="#e4e8eb" fill-rule="evenodd" d="M146.192 329.822H57.689c-19.271 0-35.037 15.766-35.037 35.037v97.421h158.577v-97.421c0-19.271-15.766-35.037-35.037-35.037" data-original="#e4e8eb"/><rect width="490.453" height="38.686" x="10.785" y="462.28" fill="#a34f41" data-original="#a34f41" rx="9.87"/><path fill="#c86f5c" fill-rule="evenodd" d="M491.354 462.28H20.655c-5.428 0-9.87 4.441-9.87 9.87v18.947q.002.827.135 1.62h474.568c3.3 0 6-2.7 6-6v-22.816q-.002-.827-.135-1.62z" data-original="#c86f5c"/><rect width="111.75" height="33.75" x="205.521" y="303.539" fill="#fdb0a0" data-original="#fdb0a0" rx="5.625"/><rect width="102.75" height="27" x="205.521" y="303.539" fill="#ffcec0" data-original="#ffcec0" rx="5.625"/><path fill="#b7bfc9" fill-rule="evenodd" d="M195.771 380.902h50.475v-43.613h30.299V392.2c0 10.465-8.535 19-18.999 19h-61.775z" data-original="#b7bfc9"/><path fill="#cad0d7" fill-rule="evenodd" d="M195.771 380.902h50.475v-43.613h23.174v49.098c0 14.59-5.723 19-18.999 19h-54.649z" data-original="#cad0d7"/><path fill="#cee7ff" fill-rule="evenodd" d="M456.132 248.286v69.825c0 7.823 1.283 14.515 4.178 21.783l39.569 99.341c2.114 5.308 1.512 10.837-1.694 15.566s-8.12 7.334-13.834 7.334H321.89c-5.714 0-10.627-2.605-13.834-7.334s-3.808-10.257-1.694-15.566l39.569-99.341c2.895-7.269 4.178-13.959 4.178-21.783v-69.825z" data-original="#cee7ff"/><path fill="#e3f1ff" fill-rule="evenodd" d="M464.184 462.135H321.89c-5.714 0-10.627-2.605-13.834-7.334s-3.808-10.257-1.694-15.566l39.569-99.341c2.895-7.269 4.178-13.959 4.178-21.783v-69.825h85.856v69.825c0 7.823 1.283 14.515 4.178 21.783l39.569 99.341c2.114 5.308 1.513 10.837-1.694 15.566s-8.12 7.334-13.834 7.334" data-original="#e3f1ff"/><path fill="#fcdb35" fill-rule="evenodd" d="m471.027 366.799 28.852 72.436c2.114 5.308 1.512 10.837-1.694 15.566s-8.12 7.334-13.834 7.334H321.89c-5.714 0-10.627-2.605-13.834-7.334s-3.808-10.257-1.694-15.566l27.462-68.947c55.776 13.546 79.44-55.447 137.203-3.489" data-original="#fcdb35"/><path fill="#ffeb87" fill-rule="evenodd" d="M464.184 462.135H321.89c-5.714 0-10.627-2.605-13.834-7.334s-3.808-10.257-1.694-15.566l27.462-68.947c46.242 11.231 70.413-34.27 110.243-20.543l35.645 89.49c2.114 5.308 1.513 10.837-1.694 15.566s-8.12 7.334-13.834 7.334" data-original="#ffeb87"/><rect width="136.644" height="29.216" x="334.799" y="219.07" fill="#a0cdfa" data-original="#a0cdfa" rx="6.367"/><rect width="117.294" height="29.216" x="334.799" y="219.07" fill="#b6dbff" data-original="#b6dbff" rx="6.367"/><path fill-rule="evenodd" d="M494.233 490.013c0 1.557-1.321 2.868-2.873 2.868H20.64c-1.547 0-2.868-1.311-2.868-2.868v-18.948c0-1.557 1.321-2.868 2.868-2.868h470.72c1.552 0 2.873 1.311 2.873 2.868zM57.682 335.738H160.72c15.463 0 28.043 12.575 28.043 28.033v90.424H29.639v-90.424c0-15.458 12.585-28.033 28.043-28.033m5.158-76.316c6.753-31.807 26.823-59.209 54.654-75.429.338 9.134 3.659 17.511 9.018 24.197-19.912 12.879-33.87 33.022-38.859 56.505-4.15 19.516-1.74 39.36 6.719 57.04H66.941c-7.11-19.964-8.551-41.409-4.102-62.314zm86.972-195.804L99.79 113.64l35.133 35.129c6.729-4.762 14.927-7.572 23.777-7.572 22.741 0 41.24 18.504 41.24 41.25 0 8.845-2.81 17.048-7.567 23.773l35.128 35.128 50.018-50.022zm-64.077 5.081 19.136-19.14 19.603 19.603-19.14 19.14-19.598-19.603zM55.952 53.627l33.851-33.846 12.527 12.527-33.846 33.847zm232.572 169.651-29.07 29.07-11.583-11.578 29.07-29.065zm-129.823-13.583c-15.029 0-27.248-12.224-27.248-27.248s12.219-27.253 27.248-27.253 27.243 12.228 27.243 27.253-12.219 27.248-27.243 27.248m87.532 177.122a6.996 6.996 0 0 0 6.999-6.999v-36.613h16.301v47.911c0 6.618-5.379 12.002-12.002 12.002h-54.77v-16.301zm-33.721-77.362h97.75v19.752h-97.75zm101.211 140.47c-1.89-2.795-2.232-5.929-.983-9.066l25.344-63.629c3.576.554 7.028.814 10.378.814 17.979 0 32.791-7.273 46.2-13.867 22.89-11.25 41.052-20.143 70.561 5.731l28.26 70.951c1.248 3.138.911 6.271-.988 9.066-1.889 2.796-4.68 4.271-8.049 4.271H321.784c-3.369 0-6.16-1.475-8.059-4.271zM449.18 254.092h-92.149v62.906c0 8.748-1.436 16.272-4.68 24.399l-8.917 22.403c16.938 1.62 30.651-5.109 45.048-12.19 19.029-9.351 40.122-19.714 67.312-5.379l-1.923-4.834c-3.239-8.127-4.69-15.651-4.69-24.399v-62.906zm-107.468-29.253h122.8v15.251h-122.8zm-3.813-114.057c14.542-1.971 26.761.959 36.391 8.744 12.513 10.117 20.21 28.265 21.589 50.471-28.477-2.921-55.358-23.112-57.98-59.214zm46.61-49.444c0-15.578 6.873-30.323 18.6-40.368 11.732 10.045 18.601 24.789 18.601 40.368 0 12.147-4.189 23.782-11.597 33.08V70.101a7 7 0 0 0-7.004-6.999 6.995 6.995 0 0 0-6.999 6.999v24.322c-7.408-9.303-11.602-20.938-11.602-33.085zm47.424 58.188c7.688-6.218 17.029-9.337 27.889-9.337 2.738 0 5.567.198 8.498.593-2.617 36.102-29.499 56.293-57.98 59.214 1.383-22.206 9.081-40.353 21.594-50.471zm71.24 339.514c.308-.405.617-.829.906-1.258 4.492-6.618 5.369-14.677 2.41-22.105l-39.621-99.461c-2.579-6.488-3.688-12.233-3.688-19.217v-62.906h1.957c7.375 0 13.371-6.001 13.371-13.376v-16.499c0-7.379-5.996-13.376-13.371-13.376h-55.026v-26.77c18.61-1.494 35.707-8.927 48.716-21.334 15.28-14.576 23.7-35.099 23.7-57.792a7 7 0 0 0-5.538-6.844c-21.121-4.521-39.741-.877-53.859 10.537-4.979 4.03-9.341 8.994-13.019 14.74v-9.317c16.089-12.686 25.599-32.13 25.599-52.722 0-21.84-10.681-42.378-28.583-54.948a6.985 6.985 0 0 0-8.04 0c-17.897 12.57-28.578 33.109-28.578 54.948 0 20.596 9.5 40.035 25.599 52.722v9.317c-3.687-5.745-8.04-10.71-13.019-14.74-14.113-11.414-32.738-15.058-53.869-10.537a7.004 7.004 0 0 0-5.533 6.844c0 22.693 8.421 43.217 23.7 57.792 13.009 12.407 30.111 19.839 48.721 21.334v26.77h-55.03c-7.37 0-13.371 5.997-13.371 13.376v16.499c0 7.375 6.001 13.376 13.371 13.376h1.952v62.906c0 6.984-1.099 12.735-3.682 19.217l-39.621 99.461c-2.439 6.136-2.261 12.696.4 18.519h-97.369v-37.081h54.77c14.34 0 25.999-11.665 25.999-25.999v-47.911h28.101c6.97 0 12.633-5.664 12.633-12.624v-22.5c0-6.96-5.663-12.629-12.633-12.629H211.13c-6.96 0-12.619 5.668-12.619 12.629v22.5c0 6.96 5.659 12.624 12.619 12.624h28.101v29.614h-36.473v-9.047c0-23.175-18.861-42.035-42.04-42.035h-50.509c-9.688-16.335-12.85-35.417-8.869-54.129 4.487-21.136 17.588-39.062 36.208-49.762a41.05 41.05 0 0 0 21.15 5.847c8.854 0 17.053-2.81 23.772-7.572l40.078 40.078c1.369 1.364 3.162 2.049 4.95 2.049s3.581-.684 4.95-2.049l5.528-5.528 12.764 12.768c2.328 2.323 5.417 3.601 8.71 3.601s6.377-1.277 8.7-3.601l31.461-31.456c4.796-4.801 4.796-12.609 0-17.41l-12.773-12.768 5.529-5.529c2.733-2.733 2.733-7.167 0-9.895L154.763 48.772c-2.728-2.733-7.163-2.733-9.901 0L134.374 59.26l-19.719-19.724a12.3 12.3 0 0 0 2.338-7.23c0-3.311-1.292-6.42-3.62-8.753L98.551 8.736c-4.82-4.825-12.682-4.825-17.511 0L44.914 44.872c-4.835 4.825-4.835 12.681 0 17.511l14.817 14.812a12.33 12.33 0 0 0 8.753 3.62c2.54 0 5.081-.79 7.23-2.338l19.719 19.724L84.94 108.69c-1.306 1.316-2.048 3.094-2.048 4.95s.742 3.639 2.048 4.95l40.084 40.079a41.3 41.3 0 0 0-4.381 7.881c-36.488 17.092-63.119 50.509-71.501 89.966-4.661 21.945-3.547 44.421 3.152 65.582-20.639 2.651-36.652 20.326-36.652 41.674v91.181c-6.868 2.14-11.872 8.551-11.872 16.113v18.948c0 9.303 7.573 16.87 16.87 16.87h470.72c9.303 0 16.87-7.567 16.87-16.87v-18.948c0-4.704-1.937-8.965-5.056-12.026zM168.451 182.446c0 5.369-4.382 9.746-9.751 9.746s-9.746-4.377-9.746-9.746 4.376-9.751 9.746-9.751 9.751 4.376 9.751 9.751m-41.689 195.13c-9.592 0-17.4 7.799-17.4 17.391 0 2.222.439 4.338 1.2 6.295l22.49-22.49a17.3 17.3 0 0 0-6.29-1.195zm0 34.781c9.577 0 17.386-7.804 17.386-17.391a17.4 17.4 0 0 0-1.195-6.295l-22.49 22.49a17.3 17.3 0 0 0 6.3 1.195zm0 13.997c17.299 0 31.388-14.079 31.388-31.388s-14.089-31.393-31.388-31.393-31.403 14.084-31.403 31.393 14.094 31.388 31.403 31.388" data-original="#000000"/></svg>