<svg xmlns="http://www.w3.org/2000/svg" xml:space="preserve" viewBox="0 0 512.002 512.002"><path fill="#ef5227" d="M415.928 75.637h-36.12l2-56.137c0-5.523 4.477-10 10-10l3.003-2h11.118c5.523 0 10 4.477 10 10v40.14l-1.832 8.254z" data-original="#ef5227"/><path fill="#d83724" d="M415.93 57.64v18h-36.12V17.5c0-5.52 4.47-10 10-10h5v46.14a4 4 0 0 0 4 4z" data-original="#d83724"/><path fill="#f1f2f2" d="M470.593 341.42H336.145v-23.771h32.725l28.59 4.585 29.41-4.585h43.723z" data-original="#f1f2f2"/><path fill="#dee1e1" d="M426.87 329.71v-12.06h-58v12.06a4 4 0 0 1-4 4h-28.72v14h134.44v-14h-39.72a4 4 0 0 1-4-4" data-original="#dee1e1"/><path fill="#ef5227" d="m335.742 386.94 6.524-42.578 5.671-8.463 36.677-153.508-1.744-11.691 14.592-42.084-29.273-6.997-20.472 116.19-37.363 125.152z" data-original="#ef5227"/><path fill="#b4e3f5" d="M104.089 502.5H25c-8.284 0-15-6.716-15-15v-463c0-8.284 6.716-15 15-15l1-2h80.089c8.284 0 15 6.716 15 15v464l-2 1c0 8.284-6.716 15-15 15" data-original="#b4e3f5"/><path fill="#83d3f0" d="M121.09 486.5v3c0 8.284-6.716 15-15 15H23c-8.284 0-15-6.716-15-15v-16l5.585-6.085L8 458.5v-15l5.585-7.17L8 428.5v-15l5.585-7.553L8 398.5v-15l5.585-7.68L8 369.5v-16l5.585-6.085L8 338.5v-15l5.585-7.68L8 308.5v-15l7.117-9.223L8 278.5v-15l7.117-6.18L8 249.82V233.5l7.117-7.5L8 218.5v-15l7.117-7.5L8 188.5v-15l7.117-7.5L8 158.5v-15l7.117-7.5L8 128.5v-15l5.33-7.5L8 98.5v-15l5.33-9.096L8 68.5v-15l5.33-7.5L8 38.5v-16c0-8.284 6.716-15 15-15h3v472a7 7 0 0 0 7 7z" data-original="#83d3f0"/><path fill="#ef5227" d="m475.202 442.702-30.468-144.826-42.963-154.619c-1.932-8.086 3.056-16.207 11.142-18.14 8.083-1.932 16.203 3.051 18.139 11.133l1.627 23.26 6.628 11.187 64.041 267.24c2.005 8.368-3.37 16.448-11.369 18.209-1.049.231-2.5-2.083-3.628-2.083-6.966.001-11.53-4.585-13.149-11.361" data-original="#ef5227"/><g fill="#d83724"><path d="m382.38 125.01-14.19-3.39-57.84 241.34 25.39 23.98 12.2-51.04-11.279-12.906a4 4 0 0 1-.878-3.565l32.732-136.571c.4-1.667 2.123-2.696 3.758-2.181a37 37 0 0 0 11.147 1.712h1.19l12.85-53.77-15.081-3.607zm109.6 331.14c-1.05.23-2.14.35-3.27.35h-.22c-6.96 0-13.02-4.78-14.64-11.56l-72.08-301.68c-1.93-8.09 3.06-16.21 11.14-18.14 1.18-.28 2.36-.42 3.52-.42 6.81 0 12.97 4.65 14.62 11.55l8.25 34.45a36.5 36.5 0 0 1-11.33 8.23c-1.3.61-2.01 2.03-1.68 3.43l64.59 269.19z" data-original="#d83724"/><path d="m439.31 170.69-.01.01-8.25-34.45z" data-original="#d83724"/></g><path fill="#f1f2f2" d="m411.202 165.638-27.064-.426c-9.098 0-16.905-5.467-19.66-14.128l-13.617-44.596c-3.194-10.044-1.477-19.64 5.617-25.957.37-.33.499-1.738.888-2.046 4.25-3.36 9.645-5.406 15.648-5.406h49.705c17.105 0 29.272 16.611 24.094 32.893l-14.127 44.419-1.4 1.629c-2.753 8.662-10.986 13.618-20.084 13.618" data-original="#f1f2f2"/><path fill="#dee1e1" d="m432.68 150.39-.46 1.46c-2.75 8.66-10.8 14.54-19.9 14.54h-28.9c-9.1 0-17.15-5.88-19.91-14.54l-14.59-45.88c-3.36-10.57.58-21.27 8.45-27.48l20.356 64.224a11 11 0 0 0 10.486 7.676z" data-original="#dee1e1"/><path fill="#ef5227" d="M397.934 373.181h-.132q-.469 0-.932-.029c-7.814-.481-11.71-9.621-11.71-17.556l-.34-46.638c0-7.935 4.237-16.267 12.051-16.748q.463-.029.931-.029h.132c8.248 0 14.934 6.686 14.934 14.934v51.132c0 8.247-6.686 14.934-14.934 14.934" data-original="#ef5227"/><path fill="#d83724" d="M396.87 292.21v80.94c-7.82-.48-14-6.97-14-14.9v-51.14c0-7.93 6.18-14.42 14-14.9" data-original="#d83724"/><path fill="#b7e546" d="m458.19 487.92-289.22-331a10.5 10.5 0 0 0-1.526-1.434c-6.284-4.808-14.114 2.011-14.114 10.514l-.468 327.34c0 5.52 4.47 10 10 10l286.128-1.362c8.328 0 14.577-7.004 9.672-13.48a11 11 0 0 0-.472-.578m-124.78-48.19h-118.7c-1.66 0-3-1.34-3-3V300.88c0-2.77 3.43-4.06 5.26-1.97l118.7 135.85c1.7 1.94.32 4.97-2.26 4.97" data-original="#b7e546"/><path fill="#abd641" d="M450.66 504.5H161.44c-5.53 0-10-4.48-10-10v-15.97l3.081-6.339-3.081-8.661v-15.52l3.081-8.28-3.081-6.72v-15.54l3.081-7.5-3.081-7.5v-15.53l4-8.365-4-6.635v-15.52l4-8.484-4-6.516v-15.54l4-7.67-4-7.33v-15.53l4-8.52-4-6.48v-15.53l4-7.5-4-7.5v-16.05l4-7.5-4-7.5V163.5c0-8.5 9.72-12.82 16-8.01V483.5a5 5 0 0 0 5 5h286.22c4.91 6.48.33 16-8 16" data-original="#abd641"/><ellipse cx="397.868" cy="119.736" fill="#ef5227" data-original="#ef5227" rx="15.043" ry="15.032"/><path d="M106.089 0H23C10.593 0 .5 10.094.5 22.5v467C.5 501.906 10.593 512 23 512h83.089c12.407 0 22.5-10.094 22.5-22.5V109.809c0-4.143-3.358-7.5-7.5-7.5s-7.5 3.357-7.5 7.5V489.5c0 4.136-3.365 7.5-7.5 7.5H23c-4.135 0-7.5-3.364-7.5-7.5v-16h34.908c4.142 0 7.5-3.357 7.5-7.5s-3.358-7.5-7.5-7.5H15.5v-15h24.811c4.142 0 7.5-3.357 7.5-7.5s-3.358-7.5-7.5-7.5H15.5v-15h45.005c4.142 0 7.5-3.357 7.5-7.5s-3.358-7.5-7.5-7.5H15.5v-15h24.811c4.142 0 7.5-3.357 7.5-7.5s-3.358-7.5-7.5-7.5H15.5v-15h34.908c4.142 0 7.5-3.357 7.5-7.5s-3.358-7.5-7.5-7.5H15.5v-15h24.811c4.142 0 7.5-3.357 7.5-7.5s-3.358-7.5-7.5-7.5H15.5v-15h45.005c4.142 0 7.5-3.357 7.5-7.5s-3.358-7.5-7.5-7.5H15.5v-15h24.811c4.142 0 7.5-3.357 7.5-7.5s-3.358-7.5-7.5-7.5H15.5v-15h34.908c4.142 0 7.5-3.357 7.5-7.5s-3.358-7.5-7.5-7.5H15.5v-15h24.811c4.142 0 7.5-3.357 7.5-7.5s-3.358-7.5-7.5-7.5H15.5v-15h45.005c4.142 0 7.5-3.357 7.5-7.5s-3.358-7.5-7.5-7.5H15.5v-15h24.811c4.142 0 7.5-3.357 7.5-7.5s-3.358-7.5-7.5-7.5H15.5v-15h34.908c4.142 0 7.5-3.357 7.5-7.5s-3.358-7.5-7.5-7.5H15.5v-15h24.811c4.142 0 7.5-3.357 7.5-7.5s-3.358-7.5-7.5-7.5H15.5v-15h45.005c4.142 0 7.5-3.357 7.5-7.5s-3.358-7.5-7.5-7.5H15.5v-16c0-4.136 3.365-7.5 7.5-7.5h83.089c4.135 0 7.5 3.364 7.5 7.5v51.904c0 4.143 3.358 7.5 7.5 7.5s7.5-3.357 7.5-7.5V22.5c0-12.406-10.093-22.5-22.5-22.5m405.214 502.791-9.994-42.703a22.8 22.8 0 0 0 5.06-4.716c4.323-5.482 5.87-12.521 4.243-19.311l-26.825-111.939a7.502 7.502 0 0 0-14.588 3.496l26.826 111.939a7.61 7.61 0 0 1-1.435 6.526 7.61 7.61 0 0 1-6.014 2.916 7.63 7.63 0 0 1-7.448-5.879L416.72 173.549a28.26 28.26 0 0 0 14.021-6.414l30.341 126.613a7.504 7.504 0 0 0 9.042 5.546 7.5 7.5 0 0 0 5.546-9.042l-34.202-142.724 12.493-39.281c3.199-10.059 1.46-20.716-4.772-29.237-6.101-8.344-15.46-13.195-25.761-13.409V17.5c0-9.649-7.851-17.5-17.5-17.5h-16.12c-9.649 0-17.5 7.851-17.5 17.5v48.101c-10.301.214-19.66 5.066-25.761 13.409-6.232 8.521-7.972 19.179-4.772 29.237l12.492 39.279-39.505 164.855L174.614 151.99c-4.846-5.546-12.434-7.457-19.328-4.87-6.895 2.588-11.351 9.02-11.351 16.384V494.5c0 9.649 7.851 17.5 17.5 17.5h289.219c6.953 0 13.059-3.933 15.934-10.263 2.876-6.331 1.819-13.517-2.756-18.752L352.186 355.212h23.181v3.035c0 12.37 10.064 22.434 22.435 22.434h.132c12.37 0 22.434-10.063 22.434-22.434v-3.035h24.334l21.837 91.396a22.57 22.57 0 0 0 20.263 17.317l9.896 42.284a7.504 7.504 0 0 0 9.012 5.594 7.5 7.5 0 0 0 5.593-9.012M389.808 15h16.12c1.379 0 2.5 1.121 2.5 2.5v48.08h-21.12V17.5c0-1.379 1.121-2.5 2.5-2.5m-31.154 72.864c3.386-4.629 8.62-7.284 14.361-7.284h49.704c5.741 0 10.976 2.655 14.36 7.284 3.376 4.616 4.319 10.389 2.586 15.836l-14.59 45.875a13.33 13.33 0 0 1-12.756 9.317h-28.905a13.33 13.33 0 0 1-12.756-9.317l-14.59-45.875c-1.732-5.447-.789-11.22 2.586-15.836m6.34 79.271a28.26 28.26 0 0 0 14.021 6.414l-9.667 40.461a7.5 7.5 0 0 0 14.59 3.486l10.418-43.604h7.024l32.555 136.256h-13.568v-3.034c0-12.37-10.063-22.434-22.434-22.434h-.132c-12.37 0-22.435 10.063-22.435 22.434v3.034h-13.567l13.977-58.499a7.5 7.5 0 0 0-14.59-3.486l-22.017 92.153-12.303-14.08zm87.938 328.399c-.249.547-.875 1.466-2.276 1.466h-289.22a2.503 2.503 0 0 1-2.5-2.5v-15.967h12.691c4.142 0 7.5-3.357 7.5-7.5s-3.358-7.5-7.5-7.5h-12.691v-15.524h22.616c4.142 0 7.5-3.357 7.5-7.5s-3.358-7.5-7.5-7.5h-22.616v-15.538l12.615.001a7.5 7.5 0 0 0 7.5-7.5 7.5 7.5 0 0 0-7.5-7.5l-12.616-.001V386.94h12.578c4.142 0 7.5-3.357 7.5-7.5s-3.358-7.5-7.5-7.5h-12.578v-15.524h22.502c4.142 0 7.5-3.357 7.5-7.5s-3.358-7.5-7.5-7.5h-22.502v-15.537h12.501c4.142 0 7.5-3.357 7.5-7.5s-3.358-7.5-7.5-7.5h-12.501v-15.531h12.463c4.142 0 7.5-3.357 7.5-7.5s-3.358-7.5-7.5-7.5h-12.463v-15.524h22.388c4.142 0 7.5-3.357 7.5-7.5s-3.358-7.5-7.5-7.5h-22.388v-16.049h12.729c4.142 0 7.5-3.357 7.5-7.5s-3.358-7.5-7.5-7.5h-12.729v-55.271c0-1.431.882-2.063 1.622-2.34.281-.105.612-.187.965-.187.576 0 1.212.214 1.796.882l289.22 330.995c.922 1.056.643 2.132.394 2.68m-98.314-155.322 3.599-15.063h17.15v15.063zm50.749 18.035c0 4.099-3.335 7.434-7.434 7.434h-.132c-4.1 0-7.435-3.335-7.435-7.434v-51.133c0-4.099 3.335-7.434 7.435-7.434h.132c4.099 0 7.434 3.335 7.434 7.434zm15-18.035v-15.063h17.151l3.599 15.063z" data-original="#000000"/><path d="M214.709 447.229h39.132c4.142 0 7.5-3.357 7.5-7.5s-3.358-7.5-7.5-7.5h-34.632V312.868l104.296 119.361h-34.771c-4.143 0-7.5 3.357-7.5 7.5s3.357 7.5 7.5 7.5h44.678c4.108 0 7.861-2.417 9.561-6.158a10.52 10.52 0 0 0-1.653-11.25L222.615 293.97c-2.908-3.326-7.459-4.473-11.597-2.921-4.137 1.553-6.81 5.411-6.81 9.83V436.73c.001 5.79 4.711 10.499 10.501 10.499m183.158-304.961c12.431 0 22.544-10.107 22.544-22.531s-10.113-22.531-22.544-22.531-22.543 10.107-22.543 22.531 10.113 22.531 22.543 22.531m0-30.063c4.16 0 7.544 3.379 7.544 7.531s-3.384 7.531-7.544 7.531c-4.159 0-7.543-3.379-7.543-7.531s3.384-7.531 7.543-7.531" data-original="#000000"/></svg>