<svg xmlns="http://www.w3.org/2000/svg" xml:space="preserve" id="write" x="0" y="0" viewBox="0 0 68 68"><path fill="#54e28e" d="M57.22 25.48v30.61c0 2.41-1.96 4.37-4.38 4.37H37.56c-1.31 0-2.45.78-3.07 1.93a5.61 5.61 0 0 1-4.95 2.97c-2.14 0-4-1.2-4.95-2.97-.62-1.15-1.76-1.93-3.07-1.93H6.24c-2.42 0-4.38-1.96-4.38-4.37v-30.6c0-2.42 1.96-4.38 4.38-4.38h46.6c2.42 0 4.38 1.96 4.38 4.37"/><path fill="#e2e2e0" d="M29.54 42.44v13.58H8.85c-1.49 0-2.7-1.21-2.7-2.71V42.44zm23.4 0v10.87c0 1.5-1.22 2.71-2.71 2.71H29.54V42.44z"/><path fill="#efefed" d="M29.54 23.69v28.12H9.27c-1.72 0-3.12-1.4-3.12-3.13V20.04c0-1.73 1.4-3.13 3.12-3.13h13.49c3.74 0 6.78 3.04 6.78 6.78m23.4-3.65v28.64c0 1.73-1.4 3.13-3.13 3.13H29.54V23.69c0-3.74 3.04-6.78 6.78-6.78h13.49c1.73 0 3.13 1.4 3.13 3.13"/><path fill="#e2e2e0" d="M30.71 19.89a6.76 6.76 0 0 0-1.17 3.81v28.12h1.17zm-5.84 3.46H10.82c-.28 0-.5-.22-.5-.5s.22-.5.5-.5h14.05c.28 0 .5.22.5.5s-.22.5-.5.5m0 5.75H10.82c-.28 0-.5-.22-.5-.5s.22-.5.5-.5h14.05c.28 0 .5.22.5.5s-.22.5-.5.5m0 5.76H10.82c-.28 0-.5-.22-.5-.5s.22-.5.5-.5h14.05c.28 0 .5.22.5.5s-.22.5-.5.5m0 5.76H10.82c-.28 0-.5-.22-.5-.5s.22-.5.5-.5h14.05c.28 0 .5.22.5.5s-.22.5-.5.5m-5.88 5.75h-8.17c-.28 0-.5-.22-.5-.5s.22-.5.5-.5h8.17c.28 0 .5.22.5.5s-.23.5-.5.5m29.28-23.02H34.21c-.28 0-.5-.22-.5-.5s.22-.5.5-.5h14.05c.28 0 .5.22.5.5s-.22.5-.49.5m-3.62 5.75H34.21c-.28 0-.5-.22-.5-.5s.22-.5.5-.5h10.44c.28 0 .5.22.5.5s-.23.5-.5.5m-.44 5.76h-10c-.28 0-.5-.22-.5-.5s.22-.5.5-.5h10c.28 0 .5.22.5.5s-.22.5-.5.5m4.06 5.76H34.21c-.28 0-.5-.22-.5-.5s.22-.5.5-.5h14.05c.28 0 .5.22.5.5s-.22.5-.49.5m-6.36 5.75h-7.7c-.28 0-.5-.22-.5-.5s.22-.5.5-.5h7.7c.28 0 .5.22.5.5s-.23.5-.5.5"/><path fill="#8f90fb" d="m55.14 7.73 9.799 4.148-9.317 22.01-9.798-4.148z"/><path fill="#fbe063" d="m53.95 10.54 1.19-2.809 9.798 4.147-1.189 2.81z"/><path fill="#495e66" d="m65.72 10.03-.78 1.84-9.79-4.15.77-1.83a5.323 5.323 0 0 1 6.98-2.83c1.35.57 2.34 1.64 2.86 2.9.5 1.27.53 2.72-.04 4.07"/><path fill="#5b52c5" d="m57.331 11.993 3.03 1.283-8.12 19.182-3.03-1.282z"/><path fill="#fbe063" d="m55.62 33.89-6.54 5.79c-1.08.96-2.79.23-2.86-1.21l-.4-8.73z"/><path fill="#495e66" d="m46.1 35.84.12 2.63c.07 1.44 1.78 2.17 2.86 1.21l1.97-1.74z"/></svg>