<svg xmlns="http://www.w3.org/2000/svg" width="347" height="322"><path fill="#061f53" d="M119 64h3l1.36 2.81c14.9 30.78 30.18 61.37 45.5 91.94 3.18 6.32 6.34 12.65 9.51 18.99 1.55 3.11 3.12 6.21 4.68 9.32 3.65 7.23 7.14 14.53 10.59 21.86 2.44 5.19 4.96 10.33 7.55 15.46 2.49 4.96 4.97 9.92 7.37 14.93.5 1.03 1 2.06 1.51 3.12C211 245 211 245 210 248c-5.62.15-11.25.26-16.87.33-1.91.03-3.83.07-5.74.12-2.75.08-5.5.11-8.25.14-1.28.04-1.28.04-2.59.09-2.33 0-4.3-.07-6.55-.68-2.39-2.66-2.39-2.66-4-6-.5-.97-.99-1.95-1.5-2.95-.7-1.53-.7-1.53-1.42-3.09-.53-1.15-1.05-2.3-1.6-3.48-.27-.6-.54-1.2-.82-1.81-.86-1.89-1.72-3.77-2.59-5.65-1.16-2.51-2.31-5.02-3.47-7.53-4.93-10.72-9.91-21.36-15.58-31.71-3.28-6.08-6.06-12.37-8.86-18.69-2.31-5.22-4.71-10.36-7.38-15.41C122 150 122 150 122 148h-2c-.35 1.18-.7 2.35-1.06 3.56-3.97 11.85-10.18 23.03-15.79 34.16-2.23 4.42-4.44 8.85-6.65 13.28-.86 1.73-1.73 3.46-2.59 5.19-.37.73-.74 1.47-1.12 2.23L92 208c1.93-.51 3.86-1.02 5.79-1.52 3.48-.92 6.96-1.84 10.45-2.75.91-.24 1.82-.48 2.76-.73 1.83-.48 3.66-.96 5.49-1.45 1.31-.34 1.31-.34 2.64-.69 3.62-.95 7.25-1.91 10.87-2.86 0 4.3-.29 4.89-2.75 8.12-.58.79-1.17 1.57-1.77 2.38-.63.82-1.27 1.65-1.92 2.5-.64.85-1.28 1.71-1.94 2.59l-3.87 5.1c-1.44 1.91-2.88 3.82-4.3 5.74C98.76 244.24 98.76 244.24 95 248c-1.93.09-3.87.12-5.8.11h-3.77c-1.36 0-2.73-.01-4.09-.01-1.39 0-2.78-.01-4.17-.01-3.66 0-7.32-.01-10.98-.02-3.73-.01-7.47-.02-11.2-.02-7.33-.01-14.66-.03-21.99-.05.71-4.77 2.02-8.7 4.1-13.02l.94-2c1-2.12 2.01-4.24 3.02-6.36.7-1.46 1.39-2.92 2.08-4.38 3.91-8.26 7.9-16.46 12.04-24.6 2.19-4.34 4.25-8.74 6.32-13.14 2.73-5.8 5.5-11.58 8.38-17.31.32-.64.64-1.29.97-1.95 1.45-2.87 2.9-5.75 4.36-8.62 6.31-12.43 12.33-24.98 18.15-37.64 2.86-6.2 5.77-12.35 8.89-18.42 3.55-6.92 6.61-14.03 9.61-21.21 2.19-5.23 4.55-10.3 7.14-15.35"/><path fill="#e4a12f" d="M268.18 85.777c11.74 10.89 19.94 24.01 24.82 39.22.31.94.31.94.63 1.9 7.76 24.06 4.51 50.93-6.7 73.31-6.22 11.99-6.22 11.99-10.21 13.86-4.03-.1-6.47-2.25-9.53-4.63-.62-.46-1.23-.92-1.87-1.4-1.22-.91-2.44-1.84-3.65-2.77-2.13-1.62-4.31-3.15-6.48-4.7-2.67-1.91-3.1-2.3-4.19-5.57 1.15-2.26 2.35-4.35 3.69-6.5 8.97-14.98 12.59-32.64 8.4-49.93-4.54-15.42-14.12-28.5-28.09-36.57-9.19-4.47-18-7.39-28.25-7.31l-2.24.02c-15.01.33-27.65 5.85-38.35 16.34-2 1.81-3.7 2.9-6.16 3.95-3.85-5.36-6.64-11.09-9.44-17.06-.72-1.47-.72-1.47-1.46-2.97-.45-.95-.89-1.9-1.35-2.88-.4-.85-.81-1.71-1.24-2.6-.51-2.49-.51-2.49.73-5.17 6.95-9.16 18.42-14.03 28.76-18.32.79-.34 1.58-.68 2.39-1.02 30.45-11.68 66.48.09 89.79 20.8"/><path fill="#e4a12e" d="M207 175c3.75 1.28 5.96 2.65 8.62 5.56 4.77 4.95 10.03 9.15 15.38 13.44 1.21 1.01 1.21 1.01 2.45 2.04 12.89 10.77 26.42 20.88 40.55 29.96.83.54 1.66 1.08 2.51 1.63 6.76 4.36 13.66 8.39 20.68 12.31 1.57.88 1.57.88 3.17 1.78 2.55 1.43 5.09 2.86 7.64 4.28-1.06 1.47-1.06 1.47-3 3-3.15.39-3.15.39-7.09.42-1.07.01-1.07.01-2.17.03-2.37.02-4.74.02-7.12.02-1.64.01-3.29.01-4.94.02-3.45.02-6.9.02-10.36.01-4.43 0-8.85.03-13.28.07-3.41.02-6.81.02-10.21.02-1.63 0-3.27.01-4.9.03-2.28.02-4.56.01-6.84 0h-3.94c-3.15-.62-3.15-.62-5.01-2.95-1.39-3.27-2.61-6.56-3.71-9.94-.35-1.07-.35-1.07-.71-2.15-.77-2.32-1.52-4.64-2.28-6.96-.53-1.6-1.06-3.21-1.59-4.81l-3.24-9.9c-1.3-3.96-2.61-7.92-3.92-11.88-.95-2.87-1.89-5.74-2.83-8.62-.45-1.35-.9-2.71-1.35-4.06-.62-1.88-1.23-3.76-1.84-5.64l-1.06-3.21c-.61-2.5-.61-2.5.39-4.5"/><path fill="#cda352" d="M207 175c5.33 1.45 8.36 5.08 12 9-.99.5-.99.5-2 1-.6-.64-1.2-1.28-1.81-1.94-2.1-2.26-2.1-2.26-5.19-3.06.33 1.22.66 2.43 1 3.69.8 3.18 1.21 6.01 1 9.31-2.25-3.37-3.05-6.29-4.12-10.19-.19-.65-.37-1.31-.56-1.98L206 176z"/><path fill="#d5a54b" d="M260 80c6.28 3.63 10.99 8.81 16 14l-1 2c-2.97-.5-2.97-.5-6-1v-4c-2.67-3.19-4.74-5.53-9-6z"/><path fill="#ce983b" d="m169 104 2 2-9 9-4-2c-.75-2.62-.75-2.62-1-5 .99.5.99.5 2 1v3h4l-2-5 8-1z"/><path fill="#cfa457" d="M229 65c4.49.59 8.23 1.76 12.38 3.56 1.05.46 2.11.91 3.21 1.38.79.35 1.59.7 2.41 1.06-3.21 1.07-4.4.94-7.62.25-.8-.16-1.6-.32-2.42-.48L235 70l-1-3-5-1z"/><path fill="#ce9b49" d="m220 218 3 1v5h2v9c-1.75-2.62-2.65-4.56-3.62-7.5-.4-1.16-.4-1.16-.79-2.34C220 221 220 221 220 218"/><path fill="#21304a" d="m110 167 1 2c-1.07 2.6-2.2 5.1-3.44 7.62-.34.71-.67 1.42-1.02 2.15-.84 1.74-1.69 3.49-2.54 5.23-1.07-3.65-.76-6.26 0-10l3 1c.31-1.13.62-2.27.94-3.44C109 168 109 168 110 167"/><path fill="#c89e4a" d="M253 212c9.59 6.15 9.59 6.15 13 10-9.99-2.82-9.99-2.82-13-7z"/><path fill="#252e4f" d="M75 157h1v6h-2c-.43 1.08-.43 1.08-.88 2.19-1.04 2.6-2.08 5.21-3.12 7.81h-2c1.65-5.69 4.29-10.77 7-16"/><path fill="#263152" d="M55 198h1c-.11 1.48-.24 2.96-.38 4.44-.06.82-.13 1.64-.21 2.49-.13.69-.27 1.37-.41 2.07-.99.5-.99.5-2 1l-1 2h-2c.64-3.01 1.65-5.52 3.06-8.25.36-.71.73-1.41 1.1-2.14.28-.53.55-1.06.84-1.61"/></svg>